<mxfile host="app.diagrams.net" modified="2024-04-24T08:48:38.719Z" agent="Mozilla/5.0 (Windows NT 10.0; Win64; x64) AppleWebKit/537.36 (KHTML, like Gecko) Chrome/124.0.0.0 Safari/537.36 Edg/124.0.0.0" version="23.0.2" etag="sbG60SArBE7sW1LauypP" type="github">
  <diagram name="Page-1" id="BOdOuxjEFuM7IDr0qmAy">
    <mxGraphModel>
      <root>
        <mxCell id="0" />
        <mxCell id="1" parent="0" />
      </root>
    </mxGraphModel>
  </diagram>
</mxfile>
